<svg xmlns="http://www.w3.org/2000/svg" width="256" height="256" viewBox="0 0 256 256">
  <defs>
    <linearGradient id="edgeFade" x1="0" y1="1" x2="0" y2="0">
      <stop offset="0" stop-color="white"/>
      <stop offset="0.22" stop-color="white"/>
      <stop offset="0.56" stop-color="#d8d8d8"/>
      <stop offset="0.78" stop-color="#444"/>
      <stop offset="0.92" stop-color="black"/>
      <stop offset="1" stop-color="black"/>
    </linearGradient>
    <filter id="soften" x="-10%" y="-10%" width="120%" height="120%">
      <feGaussianBlur stdDeviation="0.8"/>
    </filter>
  </defs>
  <rect width="256" height="256" fill="black"/>
  <g filter="url(#soften)">
    <path d="M27 246 C42 197 76 174 70 124 C94 137 101 89 126 31 C150 88 152 127 183 108 C174 162 214 194 229 246 Z" fill="url(#edgeFade)"/>
    <path d="M67 248 C83 202 112 184 106 143 C126 153 127 104 144 64 C156 119 177 156 187 248 Z" fill="white" opacity="0.64"/>
    <path d="M108 249 C118 212 136 193 132 158 C146 169 150 124 159 96 C174 150 177 188 169 249 Z" fill="white" opacity="0.42"/>
  </g>
</svg>
